<!--?xml version="1.0" standalone="no"?-->
              <svg id="sw-js-blob-svg" viewBox="0 0 100 100" xmlns="http://www.w3.org/2000/svg" version="1.1">
                    <defs> 
                        <linearGradient id="sw-gradient" x1="0" x2="1" y1="1" y2="0">
                            <stop id="stop1" stop-color="rgba(169.275, 248, 55, 1)" offset="0%"></stop>
                            <stop id="stop2" stop-color="rgba(251, 168, 31, 1)" offset="100%"></stop>
                        </linearGradient>
                    </defs>
                <path fill="url(#sw-gradient)" d="M26.3,-32.2C32.2,-26.4,33.8,-16.3,34,-7.2C34.2,2,33,10.2,28.8,15.8C24.6,21.5,17.3,24.6,9.3,29C1.3,33.3,-7.5,39,-15.6,38.1C-23.6,37.2,-31,29.7,-35.4,21C-39.8,12.3,-41.2,2.4,-39,-6.3C-36.8,-15.1,-31.1,-22.7,-24,-28.3C-16.9,-33.9,-8.5,-37.6,0.9,-38.6C10.2,-39.7,20.4,-38.1,26.3,-32.2Z" width="100%" height="100%" transform="translate(50 50)" stroke-width="0" style="transition: all 0.3s ease 0s;"></path>
              </svg>