<!--?xml version="1.0" standalone="no"?-->
              <svg id="sw-js-blob-svg" viewBox="0 0 100 100" xmlns="http://www.w3.org/2000/svg" version="1.1">
                    <defs> 
                        <linearGradient id="sw-gradient" x1="0" x2="1" y1="1" y2="0">
                            <stop id="stop1" stop-color="rgba(169.275, 248, 55, 1)" offset="0%"></stop>
                            <stop id="stop2" stop-color="rgba(251, 168, 31, 1)" offset="100%"></stop>
                        </linearGradient>
                    </defs>
                <path fill="url(#sw-gradient)" d="M18.5,-31.7C23.3,-25.6,26.2,-19.5,30.8,-13C35.4,-6.6,41.6,0.2,40.9,6C40.3,11.9,32.7,16.8,26.4,21.3C20.1,25.8,15,29.8,10.4,27.5C5.8,25.2,1.7,16.7,-4.9,15.4C-11.6,14.1,-20.8,20,-26.2,19.5C-31.6,19,-33.3,12,-31.2,6.4C-29,0.8,-23,-3.5,-19.3,-7.7C-15.7,-11.9,-14.3,-16,-11.5,-23C-8.6,-29.9,-4.3,-39.7,1.2,-41.6C6.8,-43.5,13.6,-37.7,18.5,-31.7Z" width="100%" height="100%" transform="translate(50 50)" stroke-width="0" style="transition: all 0.3s ease 0s;"></path>
              </svg>