<!--?xml version="1.0" standalone="no"?-->
              <svg id="sw-js-blob-svg" viewBox="0 0 100 100" xmlns="http://www.w3.org/2000/svg" version="1.1">
                    <defs> 
                        <linearGradient id="sw-gradient" x1="0" x2="1" y1="1" y2="0">
                            <stop id="stop1" stop-color="rgba(248, 117, 55, 1)" offset="0%"></stop>
                            <stop id="stop2" stop-color="rgba(251, 168, 31, 1)" offset="100%"></stop>
                        </linearGradient>
                    </defs>
                <path fill="url(#sw-gradient)" d="M21,-24.7C28.5,-18.7,36.8,-13.3,37.9,-6.7C39,-0.1,32.9,7.7,27.6,15.2C22.4,22.6,17.9,29.8,11,33.8C4.2,37.8,-5.1,38.7,-12.1,35.3C-19,31.8,-23.6,24,-28.9,16.1C-34.1,8.1,-40.1,0,-40.2,-8.4C-40.2,-16.7,-34.3,-25.3,-26.7,-31.3C-19,-37.2,-9.5,-40.5,-1.4,-38.9C6.7,-37.3,13.5,-30.7,21,-24.7Z" width="100%" height="100%" transform="translate(50 50)" stroke-width="0" style="transition: all 0.3s ease 0s;"></path>
              </svg>